HIERARCHY
ROOT Hips
{
    OFFSET   0.000000   0.000000   0.000000
    CHANNELS 6 Xposition Yposition Zposition Zrotation Xrotation Yrotation
    JOINT Chest
    {
        OFFSET   0.000000   8.007230   0.000000
        CHANNELS 3 Zrotation Xrotation Yrotation
        JOINT Chest2
        {
            OFFSET   0.000000  22.077100   0.000000
            CHANNELS 3 Zrotation Xrotation Yrotation
            JOINT Neck
            {
                OFFSET   0.000000  23.255100   0.000000
                CHANNELS 3 Zrotation Xrotation Yrotation
                JOINT Head
                {
                    OFFSET   0.000000  14.370100   1.956600
                    CHANNELS 3 Zrotation Xrotation Yrotation
                    End Site
                    {
                        OFFSET   0.000000  19.566000   0.000000
                    }
                }
            }
            JOINT LeftCollar
            {
                OFFSET   3.911900  19.017000  -0.467063
                CHANNELS 3 Zrotation Xrotation Yrotation
                JOINT LeftShoulder
                {
                    OFFSET  10.383700   0.000000   0.000000
                    CHANNELS 3 Zrotation Xrotation Yrotation
                    JOINT LeftElbow
                    {
                        OFFSET  26.662100   0.001193   0.000980
                        CHANNELS 3 Zrotation Xrotation Yrotation
                        JOINT LeftWrist
                        {
                            OFFSET  28.869000  -0.000059  -0.000082
                            CHANNELS 3 Zrotation Xrotation Yrotation
                            JOINT LeftFinger0
                            {
                                OFFSET   2.044650  -2.323450   3.252850
                                CHANNELS 3 Zrotation Xrotation Yrotation
                                JOINT LeftFinger01
                                {
                                    OFFSET   3.088130   0.000000   0.000000
                                    CHANNELS 3 Zrotation Xrotation Yrotation
                                    JOINT LeftFinger02
                                    {
                                        OFFSET   2.639460   0.000000   0.000000
                                        CHANNELS 3 Zrotation Xrotation Yrotation
                                        End Site
                                        {
                                            OFFSET   2.582190   0.000000   0.000000
                                        }
                                    }
                                }
                            }
                            JOINT LeftFinger1
                            {
                                OFFSET   8.364480   0.000000   3.252850
                                CHANNELS 3 Zrotation Xrotation Yrotation
                                JOINT LeftFinger11
                                {
                                    OFFSET   4.646930   0.000000   0.000000
                                    CHANNELS 3 Zrotation Xrotation Yrotation
                                    JOINT LeftFinger12
                                    {
                                        OFFSET   2.323470   0.000000   0.000000
                                        CHANNELS 3 Zrotation Xrotation Yrotation
                                        End Site
                                        {
                                            OFFSET   2.273050   0.000000   0.000000
                                        }
                                    }
                                }
                            }
                            JOINT LeftFinger2
                            {
                                OFFSET   8.364490   0.000016   1.078090
                                CHANNELS 3 Zrotation Xrotation Yrotation
                                JOINT LeftFinger21
                                {
                                    OFFSET   5.111610   0.000000   0.000000
                                    CHANNELS 3 Zrotation Xrotation Yrotation
                                    JOINT LeftFinger22
                                    {
                                        OFFSET   2.788150   0.000016   0.000000
                                        CHANNELS 3 Zrotation Xrotation Yrotation
                                        End Site
                                        {
                                            OFFSET   2.727660   0.000000   0.000000
                                        }
                                    }
                                }
                            }
                            JOINT LeftFinger3
                            {
                                OFFSET   7.899780   0.000015  -1.078090
                                CHANNELS 3 Zrotation Xrotation Yrotation
                                JOINT LeftFinger31
                                {
                                    OFFSET   4.646930   0.000000   0.000000
                                    CHANNELS 3 Zrotation Xrotation Yrotation
                                    JOINT LeftFinger32
                                    {
                                        OFFSET   2.323470   0.000000   0.000000
                                        CHANNELS 3 Zrotation Xrotation Yrotation
                                        End Site
                                        {
                                            OFFSET   2.273050   0.000000   0.000000
                                        }
                                    }
                                }
                            }
                            JOINT LeftFinger4
                            {
                                OFFSET   7.435090   0.000000  -3.252850
                                CHANNELS 3 Zrotation Xrotation Yrotation
                                JOINT LeftFinger41
                                {
                                    OFFSET   3.717550   0.000000   0.000000
                                    CHANNELS 3 Zrotation Xrotation Yrotation
                                    JOINT LeftFinger42
                                    {
                                        OFFSET   1.858770   0.000000   0.000000
                                        CHANNELS 3 Zrotation Xrotation Yrotation
                                        End Site
                                        {
                                            OFFSET   1.818440   0.000000   0.000000
                                        }
                                    }
                                }
                            }
                        }
                    }
                }
            }
            JOINT RightCollar
            {
                OFFSET  -3.911910  19.017000  -0.467062
                CHANNELS 3 Zrotation Xrotation Yrotation
                JOINT RightShoulder
                {
                    OFFSET -10.383700   0.000014   0.000000
                    CHANNELS 3 Zrotation Xrotation Yrotation
                    JOINT RightElbow
                    {
                        OFFSET -26.662100   0.001225   0.001091
                        CHANNELS 3 Zrotation Xrotation Yrotation
                        JOINT RightWrist
                        {
                            OFFSET -28.869000  -0.000020  -0.000085
                            CHANNELS 3 Zrotation Xrotation Yrotation
                            JOINT RightFinger0
                            {
                                OFFSET  -2.044650  -2.323490   3.252850
                                CHANNELS 3 Zrotation Xrotation Yrotation
                                JOINT RightFinger01
                                {
                                    OFFSET  -3.088130   0.000000   0.000000
                                    CHANNELS 3 Zrotation Xrotation Yrotation
                                    JOINT RightFinger02
                                    {
                                        OFFSET  -2.639460   0.000000   0.000000
                                        CHANNELS 3 Zrotation Xrotation Yrotation
                                        End Site
                                        {
                                            OFFSET  -2.582190   0.000000   0.000000
                                        }
                                    }
                                }
                            }
                            JOINT RightFinger1
                            {
                                OFFSET  -8.364480   0.000000   3.252850
                                CHANNELS 3 Zrotation Xrotation Yrotation
                                JOINT RightFinger11
                                {
                                    OFFSET  -4.646930   0.000000   0.000000
                                    CHANNELS 3 Zrotation Xrotation Yrotation
                                    JOINT RightFinger12
                                    {
                                        OFFSET  -2.323470   0.000000   0.000000
                                        CHANNELS 3 Zrotation Xrotation Yrotation
                                        End Site
                                        {
                                            OFFSET  -2.273050   0.000000   0.000000
                                        }
                                    }
                                }
                            }
                            JOINT RightFinger2
                            {
                                OFFSET  -8.364480   0.000000   1.078090
                                CHANNELS 3 Zrotation Xrotation Yrotation
                                JOINT RightFinger21
                                {
                                    OFFSET  -5.111620   0.000000   0.000000
                                    CHANNELS 3 Zrotation Xrotation Yrotation
                                    JOINT RightFinger22
                                    {
                                        OFFSET  -2.788160   0.000000   0.000000
                                        CHANNELS 3 Zrotation Xrotation Yrotation
                                        End Site
                                        {
                                            OFFSET  -2.727660   0.000000   0.000000
                                        }
                                    }
                                }
                            }
                            JOINT RightFinger3
                            {
                                OFFSET  -7.899780   0.000000  -1.078090
                                CHANNELS 3 Zrotation Xrotation Yrotation
                                JOINT RightFinger31
                                {
                                    OFFSET  -4.646930   0.000000   0.000000
                                    CHANNELS 3 Zrotation Xrotation Yrotation
                                    JOINT RightFinger32
                                    {
                                        OFFSET  -2.323470   0.000000   0.000000
                                        CHANNELS 3 Zrotation Xrotation Yrotation
                                        End Site
                                        {
                                            OFFSET  -2.273050   0.000000   0.000000
                                        }
                                    }
                                }
                            }
                            JOINT RightFinger4
                            {
                                OFFSET  -7.435090   0.000000  -3.252850
                                CHANNELS 3 Zrotation Xrotation Yrotation
                                JOINT RightFinger41
                                {
                                    OFFSET  -3.717550   0.000000   0.000000
                                    CHANNELS 3 Zrotation Xrotation Yrotation
                                    JOINT RightFinger42
                                    {
                                        OFFSET  -1.858760   0.000000   0.000000
                                        CHANNELS 3 Zrotation Xrotation Yrotation
                                        End Site
                                        {
                                            OFFSET  -1.818440   0.000000   0.000000
                                        }
                                    }
                                }
                            }
                        }
                    }
                }
            }
        }
    }
    JOINT LeftHip
    {
        OFFSET   9.783030   0.000000   0.000000
        CHANNELS 3 Zrotation Xrotation Yrotation
        JOINT LeftKnee
        {
            OFFSET   0.000063 -41.789100   0.000608
            CHANNELS 3 Zrotation Xrotation Yrotation
            JOINT LeftAnkle
            {
                OFFSET   0.000048 -41.133200  -0.000184
                CHANNELS 3 Zrotation Xrotation Yrotation
                JOINT LeftToe
                {
                    OFFSET   0.000000  -6.358960  14.674500
                    CHANNELS 3 Zrotation Xrotation Yrotation
                    End Site
                    {
                        OFFSET   0.000000   0.000000   3.913200
                    }
                }
            }
        }
    }
    JOINT RightHip
    {
        OFFSET  -9.783030   0.000000   0.000000
        CHANNELS 3 Zrotation Xrotation Yrotation
        JOINT RightKnee
        {
            OFFSET   0.000071 -41.789100   0.001239
            CHANNELS 3 Zrotation Xrotation Yrotation
            JOINT RightAnkle
            {
                OFFSET   0.000037 -41.133200  -0.000166
                CHANNELS 3 Zrotation Xrotation Yrotation
                JOINT RightToe
                {
                    OFFSET   0.000000  -6.358960  14.674500
                    CHANNELS 3 Zrotation Xrotation Yrotation
                    End Site
                    {
                        OFFSET   0.000000   0.000000   3.913200
                    }
                }
            }
        }
    }
}
MOTION
Frames: 6
Frame Time:   0.016667
  0.578429  89.521400  -0.500830  -2.924180  -5.912340  -4.356820  -0.019927   3.719300   0.281341  -0.058396   7.438500   0.565783   1.769910  -0.027299   0.010856   2.907670  -0.055115   0.720846  -4.235880  -4.191120   0.744426 -72.605500  16.932500   3.641360  -1.833170  -5.679750 -14.808200  14.637000 -12.242000   6.994560  37.100100  26.393200 -54.993000 -30.784800   0.002886   0.006450 -10.394800   0.001818   0.001122 -30.356800   5.981280 -10.075100 -25.270200   0.002088   0.001133 -17.689100   0.001461  -0.004410 -28.182300  -1.953490   3.610620 -33.755700   0.004192   0.002460 -22.475100   0.001805   0.002798 -28.156300  -1.950900   3.611920 -33.468800   0.003199   0.005684 -22.290200   0.002096   0.000220 -29.291700  -2.009160   3.572200 -44.031500   0.002104  -0.001286 -29.325000  -0.015482  -0.000000  10.013700  -0.245479   4.345280  70.587600  13.713600  -5.281320  -0.256825  -6.567900   9.472460  -8.774280  -9.741010  -2.044050 -36.195000  24.531100  59.252200  29.262900   0.000065  -0.003964   9.631410   0.000000  -0.001987  23.862800   6.075130  13.433400  20.109300  -0.001337   0.001025  14.075900   0.000000   0.000897  26.792800   3.647470   7.171500  27.068100  -0.001567   0.001019  18.018900   0.001909   0.000937  23.022100   2.650970   6.203780  23.166200  -0.001254   0.000114  15.428700  -0.000769   0.000176  27.477700   1.636800   3.132440  41.297200   0.001136  -0.000913  27.495100   0.000792  -0.001043   2.598840   9.058200   3.831660   1.374730   0.355133   8.601910  -1.385540  -4.371980   3.385840  -0.000000   0.000000  -0.000000   1.228600   7.983720  -4.138850  -0.225064   1.389570 -10.063000   2.139190  -3.934720  -1.275080  -0.000000   0.000000  -0.000000
  0.573012  89.521200  -0.519548  -2.930930  -5.923610  -4.361160  -0.023197   3.735530   0.289067  -0.065541   7.470920   0.581518   1.779570  -0.030381   0.010837   2.923520  -0.061146   0.645192  -4.235670  -4.199450   0.750598 -72.594800  16.958200   3.639570  -1.839170  -5.694150 -14.829000  14.641800 -12.249600   6.991450  37.101200  26.392600 -54.996000 -30.786200   0.002876   0.006462 -10.394800   0.001803   0.001131 -30.359700   5.981280 -10.075200 -25.272500   0.002094   0.001125 -17.690700   0.001466  -0.004409 -28.182300  -1.953540   3.610550 -33.755000   0.004236   0.002476 -22.475800   0.001833   0.002810 -28.156300  -1.950960   3.611850 -33.469300   0.003211   0.005687 -22.290600   0.002104   0.000243 -29.289300  -2.008920   3.572140 -44.027800   0.002111  -0.001274 -29.322600  -0.015499   0.000032  10.035600  -0.265590   4.357200  70.586400  13.757400  -5.276950  -0.254607  -6.569140   9.472250  -8.762480  -9.733270  -2.044000 -36.212500  24.557900  59.264600  29.254600   0.000062  -0.003966   9.627290   0.000000  -0.001992  23.862000   6.074690  13.442200  20.109300  -0.001342   0.001026  14.075400   0.000000   0.000899  26.792800   3.646660   7.171260  27.064100  -0.001569   0.001023  18.019300   0.001910   0.000940  23.022100   2.650950   6.207760  23.166200  -0.001254   0.000114  15.428700  -0.000769   0.000176  27.477700   1.636970   3.132780  41.290500   0.001137  -0.000900  27.495100   0.000793  -0.001043   2.609280   9.060570   3.836450   1.374960   0.356601   8.601830  -1.386310  -4.358900   3.385490   0.000000   0.000000   0.000000   1.237890   7.982500  -4.138800  -0.225469   1.397190 -10.063100   2.133550  -3.935790  -1.275300   0.000000   0.000000  -0.000000
  0.563030  89.521000  -0.551184  -2.942920  -5.944740  -4.370570  -0.029717   3.765450   0.302405  -0.079660   7.530680   0.608752   1.796280  -0.042649   0.010795   2.951010  -0.085833   0.493939  -4.236670  -4.219330   0.766718 -72.571700  17.008200   3.632940  -1.848530  -5.716080 -14.862500  14.648200 -12.261700   6.984630  37.102200  26.392800 -55.006500 -30.789500   0.002848   0.006497 -10.394800   0.001765   0.001144 -30.366800   5.981270 -10.075300 -25.278100   0.002112   0.001104 -17.694700   0.001479  -0.004406 -28.182300  -1.953640   3.610480 -33.754300   0.004348   0.002515 -22.480300   0.001900   0.002840 -28.156300  -1.951060   3.611780 -33.473100   0.003242   0.005693 -22.293100   0.002124   0.000302 -29.286900  -2.008590   3.572070 -44.024100   0.002129  -0.001243 -29.320100  -0.015542   0.000094  10.083400  -0.299312   4.391250  70.575400  13.875100  -5.246300  -0.239683  -6.577790   9.470780  -8.750530  -9.721740  -2.043930 -36.231900  24.623800  59.307000  29.246400   0.000058  -0.003969   9.623160   0.000000  -0.001999  23.861400   6.072890  13.451000  20.109300  -0.001349   0.001031  14.074900   0.000000   0.000904  26.793500   3.640990   7.169550  27.060000  -0.001574   0.001033  18.022000   0.001911   0.000947  23.022000   2.650930   6.211740  23.166300  -0.001254   0.000117  15.428800  -0.000770   0.000176  27.477700   1.637280   3.133130  41.283900   0.001137  -0.000870  27.495100   0.000794  -0.001043   2.628060   9.066010   3.843910   1.374930   0.359793   8.601760  -1.387530  -4.338330   3.385110   0.000000   0.000000   0.000000   1.254480   7.978710  -4.138540  -0.226552   1.413690 -10.063200   2.123810  -3.936860  -1.275520   0.000000   0.000000   0.000000
  0.553112  89.521000  -0.577366  -2.954030  -5.966560  -4.382370  -0.037077   3.795650   0.314275  -0.095383   7.591030   0.633120   1.810330  -0.067350   0.010735   2.974040  -0.136297   0.322285  -4.245830  -4.249950   0.793891 -72.543100  17.066400   3.619290  -1.857140  -5.730630 -14.885500  14.650000 -12.271600   6.975810  37.098500  26.395300 -55.028600 -30.794600   0.002799   0.006552 -10.397000   0.001707   0.001151 -30.380700   5.981270 -10.075300 -25.289000   0.002141   0.001072 -17.702300   0.001502  -0.004402 -28.183700  -1.953770   3.610500 -33.772700   0.004518   0.002575 -22.494600   0.002003   0.002886 -28.156200  -1.951200   3.611790 -33.485700   0.003289   0.005703 -22.301500   0.002155   0.000394 -29.293700  -2.008440   3.572090 -44.034500   0.002156  -0.001194 -29.327000  -0.015609   0.000158  10.145000  -0.323341   4.447710  70.547400  14.051600  -5.178370  -0.214225  -6.600680   9.420870  -8.775480  -9.718390  -2.055640 -36.226800  24.746100  59.425600  29.289700   0.000062  -0.003974   9.644810  -0.000000  -0.002004  23.869300   6.066100  13.431900  20.114900  -0.001354   0.001038  14.079700   0.000000   0.000913  26.797200   3.626200   7.142600  27.082400  -0.001583   0.001048  18.038000   0.001912   0.000959  23.023200   2.644440   6.195400  23.166200  -0.001253   0.000123  15.428700  -0.000768   0.000176  27.486600   1.637710   3.129680  41.297400   0.001138  -0.000826  27.504100   0.000794  -0.001044   2.646400   9.073060   3.849350   1.372580   0.365219   8.601840  -1.389660  -4.324860   3.386780  -0.000000   0.000000   0.000000   1.269630   7.971500  -4.134440  -0.228401   1.435350 -10.060300   2.115530  -3.934000  -1.274740  -0.000000   0.000000  -0.000000
  0.541912  89.521300  -0.604172  -2.966030  -5.991250  -4.397370  -0.045919   3.828780   0.326228  -0.114122   7.657220   0.657768   1.826170  -0.100782   0.010672   3.000030  -0.204359   0.116052  -4.262670  -4.283600   0.824017 -72.505600  17.127100   3.602680  -1.868900  -5.740070 -14.909300  14.649200 -12.277600   6.964920  37.093500  26.399400 -55.052100 -30.800300   0.002739   0.006629 -10.400500   0.001631   0.001158 -30.390400   5.981280 -10.075100 -25.296600   0.002177   0.001030 -17.707600   0.001529  -0.004397 -28.185800  -1.953850   3.610620 -33.798600   0.004728   0.002650 -22.509900   0.002130   0.002942 -28.156200  -1.951290   3.611920 -33.495000   0.003346   0.005715 -22.307700   0.002193   0.000508 -29.303400  -2.008390   3.572200 -44.049200   0.002189  -0.001134 -29.336800  -0.015693   0.000233  10.221400  -0.354360   4.522310  70.507100  14.304400  -5.070820  -0.171413  -6.648570   9.296280  -8.817220  -9.710450  -2.084610 -36.224300  24.822300  59.524900  29.359200   0.000067  -0.003982   9.679600   0.000000  -0.002011  23.880200   6.053420  13.398000  20.120600  -0.001362   0.001051  14.084400   0.000000   0.000924  26.802100   3.608840   7.102310  27.104800  -0.001595   0.001069  18.051800   0.001913   0.000974  23.023600   2.631250   6.165700  23.165300  -0.001251   0.000131  15.428100  -0.000766   0.000175  27.495600   1.637980   3.126230  41.310900   0.001139  -0.000774  27.513000   0.000794  -0.001045   2.665600   9.082880   3.853000   1.369800   0.368921   8.602360  -1.393170  -4.311990   3.391040  -0.000000   0.000000   0.000000   1.285840   7.963220  -4.128490  -0.230678   1.460670 -10.055700   2.106740  -3.928780  -1.270560  -0.000000   0.000000   0.000000
  0.529686  89.523900  -0.631676  -2.978450  -6.017860  -4.415570  -0.056289   3.863130   0.337572  -0.135916   7.725840   0.681306   1.845900  -0.141357   0.010615   3.032610  -0.286056  -0.124482  -4.284090  -4.311750   0.848577 -72.455100  17.174300   3.586790  -1.885150  -5.741110 -14.940200  14.641300 -12.278300   6.951100  37.094400  26.406600 -55.068900 -30.804800   0.002676   0.006734 -10.402500   0.001540   0.001164 -30.389400   5.977640 -10.068600 -25.296200   0.002220   0.000980 -17.707300   0.001556  -0.004392 -28.187000  -1.953830   3.615530 -33.810000   0.004959   0.002734 -22.517500   0.002270   0.003005 -28.156000  -1.951270   3.616860 -33.494800   0.003410   0.005729 -22.307600   0.002235   0.000638 -29.307800  -2.011090   3.576980 -44.055800   0.002226  -0.001066 -29.341200  -0.015790   0.000320  10.310500  -0.402379   4.610980  70.456200  14.666100  -4.910040  -0.092661  -6.749530   9.096080  -8.854120  -9.632310  -2.124270 -36.154600  24.732800  59.470500  29.421100   0.000069  -0.003992   9.710540   0.000000  -0.002025  23.868600   6.030600  13.357700  20.106600  -0.001378   0.001071  14.074700   0.000000   0.000936  26.799900   3.591490   7.069280  27.086000  -0.001609   0.001095  18.039200   0.001914   0.000994  22.997500   2.610930   6.128630  23.137700  -0.001249   0.000138  15.409700  -0.000765   0.000176  27.479500   1.637930   3.132740  41.286600   0.001141  -0.000723  27.496900   0.000796  -0.001047   2.683180   9.096660   3.853980   1.368820   0.368177   8.607150  -1.397310  -4.297820   3.397390   0.000000   0.000000   0.000000   1.302790   7.954540  -4.124170  -0.232929   1.489120 -10.053500   2.097130  -3.924030  -1.260900   0.000000   0.000000   0.000000
